<?xml version="1.0" encoding="utf-8"?>
<!-- Generator: Adobe Illustrator 24.0.3, SVG Export Plug-In . SVG Version: 6.00 Build 0)  -->
<svg version="1.1" id="图层_1" xmlns="http://www.w3.org/2000/svg" xmlns:xlink="http://www.w3.org/1999/xlink" x="0px" y="0px"
	 viewBox="0 0 40 40" style="enable-background:new 0 0 40 40;" xml:space="preserve">
<style type="text/css">
	.st0{fill:url(#SVGID_1_);}
	.st1{fill:url(#SVGID_2_);}
	.st2{fill:url(#SVGID_3_);}
	.st3{fill:url(#SVGID_4_);}
	.st4{fill:url(#SVGID_5_);}
	.st5{fill:url(#SVGID_6_);}
	.st6{fill:url(#SVGID_7_);}
	.st7{fill:url(#SVGID_8_);}
	.st8{display:none;}
	.st9{display:inline;fill:#EA2626;}
	.st10{display:inline;fill:url(#SVGID_9_);}
	.st11{fill:url(#SVGID_10_);}
</style>
<linearGradient id="SVGID_1_" gradientUnits="userSpaceOnUse" x1="14.5136" y1="7.673" x2="16.8969" y2="25.2498">
	<stop  offset="0" style="stop-color:#EA2626"/>
	<stop  offset="1" style="stop-color:#FF650D"/>
</linearGradient>
<path class="st0" d="M17,32.6L17,32.6c-1,0-1.9-0.9-1.9-1.9V20.7c0-1,0.9-1.9,1.9-1.9h0c1,0,1.9,0.9,1.9,1.9v10.1
	C18.9,31.8,18,32.6,17,32.6z"/>
<linearGradient id="SVGID_2_" gradientUnits="userSpaceOnUse" x1="21.2172" y1="12.7473" x2="23.0013" y2="25.9053">
	<stop  offset="0" style="stop-color:#EA2626"/>
	<stop  offset="1" style="stop-color:#FF650D"/>
</linearGradient>
<path class="st1" d="M23.1,36.3L23.1,36.3c-1,0-1.9-0.9-1.9-1.9V18.9c0-1,0.9-1.9,1.9-1.9h0c1,0,1.9,0.9,1.9,1.9v15.4
	C25,35.4,24.2,36.3,23.1,36.3z"/>
<linearGradient id="SVGID_3_" gradientUnits="userSpaceOnUse" x1="28.0732" y1="13.2653" x2="29.6669" y2="25.0193">
	<stop  offset="0" style="stop-color:#EA2626"/>
	<stop  offset="1" style="stop-color:#FF650D"/>
</linearGradient>
<path class="st2" d="M29.3,30.1L29.3,30.1c-1,0-1.9-0.9-1.9-1.9V15.7c0-1,0.9-1.9,1.9-1.9h0c1,0,1.9,0.9,1.9,1.9v12.4
	C31.2,29.2,30.3,30.1,29.3,30.1z"/>
<linearGradient id="SVGID_4_" gradientUnits="userSpaceOnUse" x1="33.457" y1="13.9259" x2="35.389" y2="28.1742">
	<stop  offset="0" style="stop-color:#EA2626"/>
	<stop  offset="1" style="stop-color:#FF650D"/>
</linearGradient>
<path class="st3" d="M35.4,36.3L35.4,36.3c-1,0-1.9-0.9-1.9-1.9V22.2c0-1,0.9-1.9,1.9-1.9h0c1,0,1.9,0.9,1.9,1.9v12.2
	C37.3,35.4,36.4,36.3,35.4,36.3z"/>
<linearGradient id="SVGID_5_" gradientUnits="userSpaceOnUse" x1="34.9377" y1="14.1811" x2="35.3992" y2="17.5852">
	<stop  offset="0" style="stop-color:#EA2626"/>
	<stop  offset="1" style="stop-color:#FF650D"/>
</linearGradient>
<path class="st4" d="M35.4,19.5L35.4,19.5c-1,0-1.9-0.9-1.9-1.9v0c0-1,0.9-1.9,1.9-1.9h0c1,0,1.9,0.9,1.9,1.9v0
	C37.3,18.7,36.4,19.5,35.4,19.5z"/>
<linearGradient id="SVGID_6_" gradientUnits="userSpaceOnUse" x1="4.1935" y1="29.1914" x2="4.6551" y2="32.5955">
	<stop  offset="0" style="stop-color:#EA2626"/>
	<stop  offset="1" style="stop-color:#FF650D"/>
</linearGradient>
<path class="st5" d="M4.7,34.5L4.7,34.5c-1,0-1.9-0.9-1.9-1.9v0c0-1,0.9-1.9,1.9-1.9h0c1,0,1.9,0.9,1.9,1.9v0
	C6.6,33.7,5.7,34.5,4.7,34.5z"/>
<linearGradient id="SVGID_7_" gradientUnits="userSpaceOnUse" x1="8.9577" y1="14.6926" x2="10.6494" y2="27.1684">
	<stop  offset="0" style="stop-color:#EA2626"/>
	<stop  offset="1" style="stop-color:#FF650D"/>
</linearGradient>
<path class="st6" d="M10.8,36L10.8,36c-1,0-1.9-0.9-1.9-1.9V22.6c0-1,0.9-1.9,1.9-1.9h0c1,0,1.9,0.9,1.9,1.9v11.5
	C12.7,35.1,11.9,36,10.8,36z"/>
<linearGradient id="SVGID_8_" gradientUnits="userSpaceOnUse" x1="2.9965" y1="11.4608" x2="4.6881" y2="23.9366">
	<stop  offset="0" style="stop-color:#EA2626"/>
	<stop  offset="1" style="stop-color:#FF650D"/>
</linearGradient>
<path class="st7" d="M4.7,29L4.7,29c-1,0-1.9-0.9-1.9-1.9v-6.7c0-1,0.9-1.9,1.9-1.9h0c1,0,1.9,0.9,1.9,1.9v6.7
	C6.6,28.1,5.7,29,4.7,29z"/>
<g class="st8">
	<path class="st9" d="M14.3,13.3c-1.1,1.6-3.3,2.3-5.5,1.3c-1.5-0.7-2.4-2.2-2.4-3.8v-0.1c0-2.4,2-4.4,4.4-4.4h0
		c1.3,0,2.5,0.6,3.3,1.5c0.4,0.5,1.1,0.7,1.8,0.7h0c1.9,0,3-2.2,1.8-3.6c-1.4-1.7-3.5-2.8-5.9-2.8h-0.9c-4.7,0-8.5,3.8-8.5,8.5v0
		c0,4.7,3.8,8.5,8.5,8.5h0.9c2.7,0,5-1.4,6.4-3.5c1-1.5-0.2-3.4-1.9-3.4h-0.1C15.4,12.5,14.7,12.8,14.3,13.3z"/>
	<linearGradient id="SVGID_9_" gradientUnits="userSpaceOnUse" x1="17.1002" y1="13.7576" x2="18.9561" y2="27.4448">
		<stop  offset="0" style="stop-color:#EA2626"/>
		<stop  offset="1" style="stop-color:#FF650D"/>
	</linearGradient>
	<path class="st10" d="M17.4,21.7L17.4,21.7c-1,0-1.9-0.9-1.9-1.9v-7.5c0-1,0.9-1.9,1.9-1.9h0c1,0,1.9,0.9,1.9,1.9v7.5
		C19.3,20.9,18.5,21.7,17.4,21.7z"/>
	<path class="st9" d="M10,12.4L10,12.4c0-1,0.9-1.9,1.9-1.9h8c1,0,1.9,0.9,1.9,1.9v0c0,1-0.9,1.9-1.9,1.9h-8
		C10.9,14.3,10,13.4,10,12.4z"/>
</g>
<linearGradient id="SVGID_10_" gradientUnits="userSpaceOnUse" x1="29.0981" y1="3.8509" x2="29.268" y2="13.9534">
	<stop  offset="2.536007e-02" style="stop-color:#EA2626"/>
	<stop  offset="0.3809" style="stop-color:#EB2825"/>
	<stop  offset="0.5865" style="stop-color:#EE3122"/>
	<stop  offset="0.754" style="stop-color:#F23F1C"/>
	<stop  offset="0.9" style="stop-color:#F95214"/>
	<stop  offset="1" style="stop-color:#FF650D"/>
</linearGradient>
<path class="st11" d="M27.5,4.7L23.2,12c-0.2,0.3-0.3,0.6-0.3,0.9c-0.1,1.6,1.7,2.5,3,1.7l1.3-0.8c1.2-0.7,2.8-0.7,4,0l1.3,0.8
	c1.3,0.8,3.1-0.1,3-1.7c0-0.3-0.1-0.6-0.3-0.9L31,4.7C30.2,3.4,28.3,3.4,27.5,4.7z"/>
<path d="M7.5,6.9l-1,3h-1l-1.1-3v2.3c0,0.4-0.3,0.8-0.8,0.8C3.3,9.9,3,9.5,3,9.1c0,0,0-4.5,0-4.5c0-1,1.4-1.2,1.8-0.3L6,7.4
	c0,0,1.1-3.1,1.1-3.1C7.5,3.4,9,3.6,9,4.6v4.5c0,0.4-0.3,0.8-0.8,0.8c-0.4,0-0.8-0.3-0.8-0.8V6.9z"/>
<path d="M9.5,7.1c0.1-0.7,0.4-1.3,1.1-1.6C11.4,5.2,13,5,13.6,5.9c0.2,0.3,0.2,0.6,0.2,0.9c0,1-0.1,2.1,0.1,3.1c-0.5,0-1,0-1.5,0
	c0-0.2,0-0.3-0.2-0.2c-0.3,0-0.5,0.2-0.7,0.2c-0.5,0.1-1.2,0-1.5-0.4C9.7,9.2,9.6,8.9,9.6,8.6c0-0.4,0.2-0.7,0.5-0.9
	c0.5-0.5,1.2-0.6,1.9-0.8c0.7-0.3,0-0.5-0.4-0.5c-0.4,0-0.9,0.2-0.8,0.7C10.8,7.1,9.5,7.1,9.5,7.1z M12.4,8C12.1,8,11,8.1,11.1,8.6
	c0,0.1,0.1,0.1,0.2,0.2c0.3,0.1,1.1,0,1.1-0.4C12.4,8.2,12.4,8.1,12.4,8z"/>
<path d="M14.5,5.3h1.5c0,0,0,0.4,0,0.4c0.6-0.4,1.2-0.4,1.8-0.4c0,0,0,1.4,0,1.4c-0.6,0.1-1.3,0.1-1.7,0.6c-0.2,0.3-0.2,0.5-0.2,0.8
	c0,0.3,0,0.7,0,1c0,0.4-0.3,0.7-0.7,0.7c-0.4,0-0.7-0.3-0.7-0.7V5.3z"/>
<path d="M19,9.9L19,9.9c-0.4,0-0.7-0.3-0.7-0.7V4.4c0-0.4,0.3-0.7,0.7-0.7l0,0c0.4,0,0.7,0.3,0.7,0.7v2.2l1-0.9
	c0.3-0.3,0.7-0.4,1.1-0.4h1.3l-1.3,1.2c-0.2,0.2-0.3,0.5-0.1,0.8l1.4,2.6h-0.7c-0.6,0-1.1-0.3-1.4-0.8l-0.6-1.2l-0.7,0.6v0.7
	C19.8,9.6,19.4,9.9,19,9.9z"/>
<path d="M10.1,12.1c-1.1,0-1.9,0.9-1.9,1.9S9,16,10.1,16c1.1,0,1.9-0.9,1.9-1.9S11.2,12.1,10.1,12.1z M10.1,14.9
	c-0.4,0-0.8-0.3-0.8-0.8s0.3-0.8,0.8-0.8s0.8,0.3,0.8,0.8S10.5,14.9,10.1,14.9z"/>
<path d="M14.3,12.1c-1.1,0-1.9,0.9-1.9,1.9s0.9,1.9,1.9,1.9c1.1,0,1.9-0.9,1.9-1.9S15.4,12.1,14.3,12.1z M14.3,14.9
	c-0.4,0-0.8-0.3-0.8-0.8s0.3-0.8,0.8-0.8s0.8,0.3,0.8,0.8S14.8,14.9,14.3,14.9z"/>
<path d="M3,15.1v-3.2c0-0.5,0.4-1,1-1c0,0,2.3,0,2.3,0c0.5,0,0.9,0.2,1.1,0.6c0.1,0.2,0.2,0.4,0.2,0.7c0,0.3-0.1,0.5-0.2,0.7
	c0,0-0.3,0.4-0.3,0.4c0.3,0.2,0.6,0.4,0.7,0.8C8,15,7.4,16,6.4,16H3.9C3.4,16,3,15.6,3,15.1z M4.3,12.1v0.8c0,0,1.6,0,1.6,0
	c0.2,0,0.4-0.1,0.4-0.3c0-0.2-0.1-0.4-0.3-0.4c-0.1,0-0.2,0-0.3,0H4.3z M4.3,13.9v0.9c0,0,1.7,0,1.7,0c0.3,0,0.5-0.2,0.5-0.5
	c-0.1-0.3-0.3-0.4-0.6-0.4C5.8,13.9,4.3,13.9,4.3,13.9z"/>
<path d="M18,16.1h-1.2v-5.2H18v2.5l1.3-1.2h1.6l-1.3,1.4l1.4,2.5h-1.4l-1-1.7L18,14.9V16.1z"/>
</svg>
